<svg xmlns="http://www.w3.org/2000/svg">
  <defs>
    <symbol id="close" viewBox="0 0 139.41 139.41">
      <line x1="27.58" y1="27.58" x2="111.82" y2="111.82" style="fill:none; stroke-linecap:round; stroke-miterlimit:10; stroke-width:9px;"/>
      <line x1="111.82" y1="27.58" x2="27.58" y2="111.82" style="fill:none; stroke-linecap:round; stroke-miterlimit:10; stroke-width:9px;"/>
    </symbol>
    <symbol id="upload" viewBox="0 0 139.41 139.41">
      <path d="m115.64,88.3v20.32c0,3.74-3.91,6.77-8.72,6.77H32.49c-4.82,0-8.72-3.03-8.72-6.77v-20.32" style="fill:none; stroke-linecap:round; stroke-miterlimit:10; stroke-width:9px;"/>
      <line x1="69.7" y1="21.12" x2="69.7" y2="83.89" style="fill:none; stroke-linecap:round; stroke-miterlimit:10; stroke-width:9px;"/>
      <line x1="51.32" y1="41.62" x2="69.7" y2="21.12" style="fill:none; stroke-linecap:round; stroke-miterlimit:10; stroke-width:9px;"/>
      <line x1="88.09" y1="41.62" x2="69.7" y2="21.12" style="fill:none; stroke-linecap:round; stroke-miterlimit:10; stroke-width:9px;"/>
    </symbol>
    <symbol id="swap-camera" viewBox="0 0 139.41 139.41">
      <path d="m118.03,73.29c-9.08,32.31-38.74,49.86-66.25,39.2-7.21-2.79-13.56-7.25-18.83-12.89" style="fill:none; stroke-linecap:round; stroke-miterlimit:10; stroke-width:9px;"/>
      <polygon points="48.13 94.39 21.38 81.69 23.76 111.21 48.13 94.39"/>
      <path d="m21.38,66.12C30.46,33.81,60.12,16.26,87.63,26.93c7.21,2.79,13.56,7.25,18.83,12.89" style="fill:none; stroke-linecap:round; stroke-miterlimit:10; stroke-width:9px;"/>
      <polygon points="91.27 45.02 118.03 57.72 115.65 28.2 91.27 45.02"/>
    </symbol>
    <symbol id="check" viewBox="0 0 139.41 139.41">
      <path d="m116.25,27.63l-62.62,82.53c-1.19,1.81-3.71,2.16-5.34.72l-25.12-22.07" style="fill:none; stroke-linecap:round; stroke-miterlimit:10; stroke-width:9px;"/>
    </symbol>
    <symbol id="folds-settings" viewBox="0 0 139.41 139.41">
      <line x1="119.37" y1="51.66" x2="46.49" y2="51.66" style="stroke-linecap:round; stroke-miterlimit:10; stroke-width:9px;"/>
      <line x1="31.43" y1="51.66" x2="20.04" y2="51.66" style="stroke-linecap:round; stroke-miterlimit:10; stroke-width:9px;"/>
      <line x1="119.37" y1="87.75" x2="108.25" y2="87.75" style="stroke-linecap:round; stroke-miterlimit:10; stroke-width:9px;"/>
      <line x1="93.18" y1="87.75" x2="20.04" y2="87.75" style="stroke-linecap:round; stroke-miterlimit:10; stroke-width:9px;"/>
      <path d="m46.49,51.66c0,4.16-3.37,7.53-7.53,7.53s-7.53-3.37-7.53-7.53,3.37-7.54,7.53-7.54,7.53,3.38,7.53,7.54Z" style="stroke-linecap:round; stroke-miterlimit:10; stroke-width:9px;"/>
      <path d="m108.25,87.75c0,4.16-3.37,7.54-7.53,7.54s-7.54-3.38-7.54-7.54,3.38-7.53,7.54-7.53,7.53,3.37,7.53,7.53Z" style="stroke-linecap:round; stroke-miterlimit:10; stroke-width:9px;"/>
    </symbol>
    <symbol id="folds-settings-padding-vert" viewBox="0 0 139.41 139.41">
      <rect x="65.7" y="31.52" width="8" height="76.36"/>
      <polygon points="53.75 36.19 69.7 8.56 85.66 36.19 53.75 36.19"/>
      <polygon points="53.75 103.22 69.7 130.85 85.66 103.22 53.75 103.22"/>
    </symbol>
    <symbol id="folds-settings-padding-horiz" viewBox="0 0 139.41 139.41">
      <rect x="31.52" y="65.7" width="76.36" height="8"/>
      <polygon points="36.19 85.66 8.56 69.7 36.19 53.75 36.19 85.66"/>
      <polygon points="103.22 85.66 130.85 69.7 103.22 53.75 103.22 85.66"/>
    </symbol>
    <symbol id="folds-settings-scale" viewBox="0 0 139.41 139.41">
      <path d="m64.4,119.83H22.31c-2.76,0-5-2.24-5-5v-38.36c0-2.76,2.24-5,5-5h42.1c2.76,0,5,2.24,5,5v38.36c0,2.76-2.24,5-5,5Zm-39.1-8h36.1v-32.36H25.31v32.36Z"/>
      <path d="m117.1,92.4H50.43c-2.76,0-5-2.24-5-5V24.58c0-2.76,2.24-5,5-5h66.67c2.76,0,5,2.24,5,5v62.82c0,2.76-2.24,5-5,5Zm-63.67-8h60.67V27.58h-60.67v56.82Z"/>
      <path d="m76.83,69.2c-1.02,0-2.03-.38-2.81-1.16-1.57-1.55-1.58-4.09-.03-5.66l13.87-14.02c1.55-1.57,4.09-1.58,5.66-.03,1.57,1.55,1.58,4.09.03,5.66l-13.87,14.02c-.78.79-1.81,1.19-2.84,1.19Z"/>
      <polygon points="98.76 65.73 106.86 34.86 76.08 43.28 98.76 65.73"/>
    </symbol>
    <symbol id="folds-settings-mouth-padding" viewBox="0 0 139.41 139.41">
      <path d="m48.54,94.93c-29.24,0-38.88-25.05-38.98-25.31l-.48-1.28.66-1.2c1.36-2.48,13.65-24.28,26.68-25.75,4.14-.47,7.98,1.14,11.1,4.65.56.63.93.77,1.01.77s.46-.14,1.02-.77c3.12-3.51,6.95-5.12,11.1-4.65,13.04,1.47,25.33,23.27,26.68,25.75l.66,1.2-.48,1.28c-.09.25-9.73,25.31-38.98,25.31Zm-32.82-26.17c2.15,4.59,11.06,20.17,32.82,20.17s30.66-15.57,32.82-20.17c-3.88-6.67-13.47-20.52-21.39-21.41-2.2-.25-4.09.6-5.93,2.67-2.04,2.3-4.12,2.78-5.5,2.78s-3.46-.48-5.5-2.78c-1.84-2.07-3.72-2.92-5.93-2.67-7.91.89-17.5,14.74-21.39,21.41Z"/>
      <path d="m79.88,72.83c-9,0-16.41-2.21-21.82-3.82-1.85-.55-3.45-1.03-4.74-1.3-3.13-.67-6.45-.67-9.58,0-1.29.27-2.88.75-4.74,1.3-5.41,1.61-12.82,3.82-21.82,3.82-1.66,0-3-1.34-3-3s1.34-3,3-3c8.12,0,15.05-2.06,20.1-3.57,1.97-.59,3.68-1.09,5.2-1.42,3.95-.84,8.13-.84,12.08,0,1.52.32,3.23.83,5.2,1.42,5.06,1.5,11.98,3.57,20.1,3.57,1.66,0,3,1.34,3,3s-1.34,3-3,3Z"/>
      <path d="m48.54,77.98c-7.4,0-13.11-3.79-15.21-5.41-1.96-.31-9.18-.12-15.13.25-1.67.1-3.08-1.15-3.18-2.8-.1-1.65,1.15-3.08,2.8-3.18,16.67-1.06,18,.03,18.88.75,1.26,1.03,5.85,4.39,11.84,4.39s10.65-2.79,11.84-3.77c.81-.66,2.16-1.77,18.76-1.38,1.66.04,2.97,1.41,2.93,3.07-.04,1.63-1.37,2.93-3,2.93-.02,0-.05,0-.07,0-6.03-.14-13.33-.04-15.23.34-2.45,1.82-8.24,4.81-15.24,4.81Zm-15.64-5.74s0,0,0,0c0,0,0,0,0,0Z"/>
      <rect x="107.08" y="49.54" width="8" height="40.33"/>
      <polygon points="95.12 54.21 111.07 26.58 127.03 54.21 95.12 54.21"/>
      <polygon points="95.12 85.2 111.07 112.83 127.03 85.2 95.12 85.2"/>
    </symbol>
  </defs>
</svg>
