<svg id="a" xmlns="http://www.w3.org/2000/svg" viewBox="0 0 320 320">
  <style>
    @media (prefers-color-scheme: dark) {
      path, rect {
         fill: #fff !important;
      }
    }
  </style>
  <path d="m93.47,144.77c-4.73,0-8.64-1.55-11.73-4.64-3.09-3.09-4.64-7-4.64-11.73s1.55-8.64,4.64-11.73c3.09-3.09,7-4.64,11.73-4.64h3.64c4.73,0,8.64,1.55,11.73,4.64s4.64,7,4.64,11.73-1.55,8.64-4.64,11.73-7,4.64-11.73,4.64h-3.64Zm0,70.91c-4.73,0-8.64-1.55-11.73-4.64-3.09-3.09-4.64-7-4.64-11.73s1.55-8.64,4.64-11.73c3.09-3.09,7-4.64,11.73-4.64h3.64c4.73,0,8.64,1.55,11.73,4.64s4.64,7,4.64,11.73-1.55,8.64-4.64,11.73-7,4.64-11.73,4.64h-3.64Z" style="fill:#231f20;"/>
  <rect x="147.52" width="10.97" height="320" style="fill:#231f20;"/>
  <path d="m189.94,224.4c10.18-2.42,18.18-7.48,24-15.18,5.82-7.7,8.73-17,8.73-27.91v-34.73c0-11.15-2.88-20.57-8.64-28.27-5.76-7.7-13.79-12.82-24.09-15.36v-27.27c18.91,5.09,33.64,13.88,44.18,26.36,10.54,12.49,15.82,27.34,15.82,44.55v34.73c0,17.58-5.18,32.45-15.55,44.64-10.36,12.18-25.18,20.88-44.45,26.09v-27.64Z" style="fill:#231f20;"/>
</svg>
