<?xml version="1.0" encoding="UTF-8"?><svg id="a" xmlns="http://www.w3.org/2000/svg" xmlns:xlink="http://www.w3.org/1999/xlink" viewBox="0 0 320 320"><defs><style>.c{fill:#a6a6a6;}.d{stroke-width:3px;}.d,.e,.f{fill:none;}.d,.f,.g{stroke-miterlimit:10;}.d,.g{stroke:#020202;}.h{fill:#020202;}.e{clip-path:url(#b);}.f{stroke:#fff;stroke-width:9px;}.g{fill:#fff;}.i{fill:#d2d2d2;}</style><clipPath id="b"><path class="d" d="m78.73,174.82c-.81-.33-1.54.6-1.03,1.31,6.46,8.98,31.91,39.1,82.3,39.1s75.84-30.13,82.3-39.1c.51-.71-.22-1.64-1.03-1.31-8.18,3.32-34.93,12.48-81.27,12.48s-73.09-9.16-81.27-12.48Z"/></clipPath></defs><circle class="i" cx="160" cy="160" r="144.08"/><rect class="c" x="48.33" y="94.23" width="300.42" height="62.96"/><ellipse class="h" cx="99.16" cy="125.71" rx="13.29" ry="13.01"/><ellipse class="h" cx="220.84" cy="125.71" rx="13.29" ry="13.01"/><rect class="c" x="-39.61" y="157.19" width="309.24" height="86.29"/><g class="e"><path class="g" d="m75.34,171.67c56.76-8.9,112.57-8.9,169.33,0-2.07,17.56-4.13,35.13-6.2,52.69-52.64-8.21-104.31-8.21-156.94,0-2.07-17.56-4.13-35.13-6.2-52.69Z"/><path class="g" d="m216.52,167.68c-1.38,17.66-2.76,35.32-4.14,52.98"/><path class="g" d="m188.28,165.29c-.69,17.72-1.38,35.44-2.07,53.16"/><path class="g" d="m160,164.5c0,17.74,0,35.48,0,53.21"/><path class="g" d="m131.72,165.29c.69,17.72,1.38,35.44,2.07,53.16"/><path class="g" d="m103.48,167.68c1.38,17.66,2.76,35.32,4.14,52.98"/></g><path class="d" d="m78.73,174.82c-.81-.33-1.54.6-1.03,1.31,6.46,8.98,31.91,39.1,82.3,39.1s75.84-30.13,82.3-39.1c.51-.71-.22-1.64-1.03-1.31-8.18,3.32-34.93,12.48-81.27,12.48s-73.09-9.16-81.27-12.48Z"/><line class="f" x1="351.09" y1="157.19" x2="-39.61" y2="157.19"/></svg>